<?xml version="1.0" encoding="UTF-8" standalone="no"?><svg xmlns="http://www.w3.org/2000/svg" xmlns:xlink="http://www.w3.org/1999/xlink" contentScriptType="application/ecmascript" contentStyleType="text/css" height="338px" preserveAspectRatio="none" style="width:848px;height:338px;background:#FFFFFF;" version="1.1" viewBox="0 0 848 338" width="848px" zoomAndPan="magnify"><defs><filter height="300%" id="fis8zfy1jhspz" width="300%" x="-1" y="-1"><feGaussianBlur result="blurOut" stdDeviation="2.0"/><feColorMatrix in="blurOut" result="blurOut2" type="matrix" values="0 0 0 0 0 0 0 0 0 0 0 0 0 0 0 0 0 0 .4 0"/><feOffset dx="4.0" dy="4.0" in="blurOut2" result="blurOut3"/><feBlend in="SourceGraphic" in2="blurOut3" mode="normal"/></filter></defs><g><!--MD5=[128f0757cf0ea77f14e95a88885fd9f7]
entity Usuario--><ellipse cx="102.5" cy="261.1548" fill="#ADD8E6" filter="url(#fis8zfy1jhspz)" rx="8" ry="8" style="stroke:#A80036;stroke-width:1.5;"/><path d="M102.5,269.1548 L102.5,296.1548 M89.5,277.1548 L115.5,277.1548 M102.5,296.1548 L89.5,311.1548 M102.5,296.1548 L115.5,311.1548 " fill="none" filter="url(#fis8zfy1jhspz)" style="stroke:#A80036;stroke-width:1.5;"/><text fill="#000000" font-family="sans-serif" font-size="14" lengthAdjust="spacing" textLength="52" x="76.5" y="329.6499">Usuario</text><!--MD5=[2d0d93c38ab0925713fa31291f1ad442]
entity ClientPresentation--><rect fill="#ADD8E6" filter="url(#fis8zfy1jhspz)" height="36.2969" style="stroke:#A80036;stroke-width:1.5;" width="147" x="29" y="134.1548"/><text fill="#000000" font-family="sans-serif" font-size="14" lengthAdjust="spacing" textLength="127" x="39" y="157.1499">ClientPresentation</text><!--MD5=[466c151e0018cae0d41d61dfcc647844]
entity CommandHandlersClient--><rect fill="#ADD8E6" filter="url(#fis8zfy1jhspz)" height="36.2969" style="stroke:#A80036;stroke-width:1.5;" width="191" x="7" y="11.6548"/><text fill="#000000" font-family="sans-serif" font-size="14" lengthAdjust="spacing" textLength="171" x="17" y="34.6499">CommandHandlersClient</text><!--MD5=[218297df4b0221a8eb959a4bf7e6c793]
entity CommandHandlersServer--><rect fill="#90EE90" filter="url(#fis8zfy1jhspz)" height="36.2969" style="stroke:#A80036;stroke-width:1.5;" width="196" x="476.5" y="11.6548"/><text fill="#000000" font-family="sans-serif" font-size="14" lengthAdjust="spacing" textLength="176" x="486.5" y="34.6499">CommandHandlersServer</text><!--MD5=[aa159adfb5981873c8dd6a33b674688c]
entity Red--><path d="M260.5345,15.0003 C264.12,10.3321 267.6339,9.191 271.4044,14.8047 C275.5842,8.6464 281.0067,10.0846 284.3798,15.6941 C287.23,10.2422 291.2682,9.6468 294.9484,14.8725 C297.9847,8.8988 303.6941,7.7831 307.7508,13.7812 C311.6894,9.0147 315.0959,9.7534 318.5657,14.3242 C321.9357,6.9827 326.9662,7.2499 331.6761,12.9803 C335.0554,8.1961 338.8149,8.6471 342.084,13.1043 C345.846,7.8551 349.3959,7.059 354.0017,12.1298 C357.8189,6.5821 362.8588,6 366.5282,12.2861 C370.5261,7.9321 374.9231,9.4043 377.0827,14.3683 C380.8454,8.5137 387.1379,7.81 390.2758,15.0002 C394.1612,10.4802 397.6563,10.2767 400.7216,15.8491 C404.7362,10.5827 409.2717,10.9817 412.8993,16.2947 C416.0667,10.5118 420.7325,11.2993 424.1045,16.0776 C435.8555,14.995 439.2504,21.9667 435.2929,31.9542 C438.5995,41.3031 436.3597,45.8434 425.8425,45.6616 C423.538,52.5095 417.5292,52.1161 413.9154,46.9629 C412.0658,53.9441 405.7424,55.3988 401.2136,49.6324 C397.4923,54.9802 393.0307,54.0789 389.8673,49.0239 C387.1935,55.669 381.9752,57.7765 376.8752,51.4548 C374.0677,56.1371 370.2422,56.3504 366.6934,52.3212 C363.8881,59.137 357.8824,59.5576 353.4428,54.0833 C350.8023,59.4552 346.6552,59.375 342.7847,55.5011 C337.9463,59.107 333.7656,58.9504 331.4777,52.6036 C327.4087,57.8289 322.8798,59.0321 319.0362,52.3677 C314.8328,57.6468 310.6758,56.182 308.3054,50.5628 C303.0131,56.6618 298.9649,56.4699 295.1379,49.1274 C291.6991,54.5922 287.4768,52.8643 284.7762,48.3602 C279.296,53.3385 274.9527,53.7811 271.4589,46.2461 C267.7781,51.4264 262.1316,51.6783 259.0777,45.5592 C251.633,42.8207 250.0374,37.3942 254.8874,31.0942 C249.7722,23.5879 250.2525,17.1039 260.5345,15.0003 " fill="#FFFF00" filter="url(#fis8zfy1jhspz)" style="stroke:#000000;stroke-width:1.5;"/><text fill="#000000" font-family="sans-serif" font-size="14" lengthAdjust="spacing" textLength="151" x="266" y="34.6499">Red (TCP y Protocolo)</text><!--MD5=[b7189af1184f0077b348ad6ea2b0555f]
entity DataAccess--><path d="M725.5,139.6548 C725.5,129.6548 776.5,129.6548 776.5,129.6548 C776.5,129.6548 827.5,129.6548 827.5,139.6548 L827.5,164.9517 C827.5,174.9517 776.5,174.9517 776.5,174.9517 C776.5,174.9517 725.5,174.9517 725.5,164.9517 L725.5,139.6548 " fill="#90EE90" filter="url(#fis8zfy1jhspz)" style="stroke:#000000;stroke-width:1.5;"/><path d="M725.5,139.6548 C725.5,149.6548 776.5,149.6548 776.5,149.6548 C776.5,149.6548 827.5,149.6548 827.5,139.6548 " fill="none" style="stroke:#000000;stroke-width:1.5;"/><text fill="#000000" font-family="sans-serif" font-size="14" lengthAdjust="spacing" textLength="82" x="735.5" y="166.6499">DataAccess</text><!--MD5=[c74a98954e9ea47a4d31897c9094f7bb]
entity BusinessLogic--><rect fill="#90EE90" filter="url(#fis8zfy1jhspz)" height="36.2969" style="stroke:#A80036;stroke-width:1.5;" width="120" x="716.5" y="11.6548"/><text fill="#000000" font-family="sans-serif" font-size="14" lengthAdjust="spacing" textLength="100" x="726.5" y="34.6499">BusinessLogic</text><!--MD5=[556aa68fcf35c28d638e448cb1c46551]
reverse link ClientPresentation to Usuario--><path d="M88.8318,175.1452 C84.2807,184.0454 79.7902,194.5185 77.5,204.6548 C74.0182,220.0652 77.0712,236.7877 82.085,251.4457 " fill="none" id="ClientPresentation-backto-Usuario" style="stroke:#A80036;stroke-width:1.0;"/><polygon fill="#A80036" points="91.3528,170.3746,83.6112,176.463,89.0167,174.7953,90.6843,180.2008,91.3528,170.3746" style="stroke:#A80036;stroke-width:1.0;"/><text fill="#000000" font-family="sans-serif" font-size="13" lengthAdjust="spacing" textLength="8" x="78.5" y="217.7217">1</text><!--MD5=[ccb8ed593cfb78828ec45562f19c5af1]
link ClientPresentation to Usuario--><path d="M102.5,170.1707 C102.5,189.349 102.5,220.4536 102.5,246.4528 " fill="none" id="ClientPresentation-to-Usuario" style="stroke:#A80036;stroke-width:1.0;"/><polygon fill="#A80036" points="102.5,251.5795,106.5,242.5795,102.5,246.5795,98.5,242.5795,102.5,251.5795" style="stroke:#A80036;stroke-width:1.0;"/><text fill="#000000" font-family="sans-serif" font-size="13" lengthAdjust="spacing" textLength="16" x="103.5" y="217.7217">12</text><!--MD5=[5eb7451adb58f6582e1079fc7354fb74]
reverse link CommandHandlersClient to ClientPresentation--><path d="M87.5008,52.1382 C80.2451,65.6669 73.8206,83.37 77.5,99.6548 C80.2143,111.6682 86.0193,124.1547 91.3528,133.935 " fill="none" id="CommandHandlersClient-backto-ClientPresentation" style="stroke:#A80036;stroke-width:1.0;"/><polygon fill="#A80036" points="89.9799,47.7184,82.0883,53.611,87.5338,52.0792,89.0655,57.5247,89.9799,47.7184" style="stroke:#A80036;stroke-width:1.0;"/><text fill="#000000" font-family="sans-serif" font-size="13" lengthAdjust="spacing" textLength="8" x="78.5" y="95.7217">2</text><!--MD5=[082c93f892b952715b7e04a79ec80a39]
link CommandHandlersClient to ClientPresentation--><path d="M102.5,47.7301 C102.5,69.2623 102.5,105.2783 102.5,128.876 " fill="none" id="CommandHandlersClient-to-ClientPresentation" style="stroke:#A80036;stroke-width:1.0;"/><polygon fill="#A80036" points="102.5,134.0053,106.5,125.0053,102.5,129.0053,98.5,125.0053,102.5,134.0053" style="stroke:#A80036;stroke-width:1.0;"/><text fill="#000000" font-family="sans-serif" font-size="13" lengthAdjust="spacing" textLength="16" x="103.5" y="95.7217">11</text><!--MD5=[064656dfe25767b9afd8dabd7f38f4dd]
link CommandHandlersClient to Red--><path d="M177.8417,47.6799 C194.7826,50.0121 212.7139,51.1418 229.5,49.6548 C234.8476,49.1811 240.3222,48.5825 245.8365,47.8909 " fill="none" id="CommandHandlersClient-to-Red" style="stroke:#A80036;stroke-width:1.0;"/><polygon fill="#A80036" points="250.9093,47.2306,241.4682,44.4261,245.9511,47.8762,242.5011,52.3591,250.9093,47.2306" style="stroke:#A80036;stroke-width:1.0;"/><text fill="#000000" font-family="sans-serif" font-size="13" lengthAdjust="spacing" textLength="8" x="220.5" y="45.7217">3</text><!--MD5=[c12e8a27fd400a23cc92b2ddc8f38d93]
reverse link CommandHandlersClient to Red--><path d="M203.6156,29.6548 C219.245,29.6548 235.3041,29.6548 250.689,29.6548 " fill="none" id="CommandHandlersClient-backto-Red" style="stroke:#A80036;stroke-width:1.0;"/><polygon fill="#A80036" points="198.3333,29.6548,207.3333,33.6548,203.3333,29.6548,207.3333,25.6548,198.3333,29.6548" style="stroke:#A80036;stroke-width:1.0;"/><text fill="#000000" font-family="sans-serif" font-size="13" lengthAdjust="spacing" textLength="16" x="216.5" y="22.7217">10</text><!--MD5=[e90095e66a45c78983ca77e7d6f62861]
link Red to CommandHandlersServer--><path d="M432.2511,29.6548 C444.9979,29.6548 458.1778,29.6548 471.1379,29.6548 " fill="none" id="Red-to-CommandHandlersServer" style="stroke:#A80036;stroke-width:1.0;"/><polygon fill="#A80036" points="476.2859,29.6548,467.2859,25.6548,471.2859,29.6548,467.2859,33.6548,476.2859,29.6548" style="stroke:#A80036;stroke-width:1.0;"/><text fill="#000000" font-family="sans-serif" font-size="13" lengthAdjust="spacing" textLength="8" x="450.25" y="22.7217">4</text><!--MD5=[93ad7f110df9d57954f35e7b4c098698]
reverse link Red to CommandHandlersServer--><path d="M437.2861,48.366 C441.3198,48.8588 445.3202,49.2932 449.25,49.6548 C465.915,51.1883 483.724,50.0486 500.5291,47.6878 " fill="none" id="Red-backto-CommandHandlersServer" style="stroke:#A80036;stroke-width:1.0;"/><polygon fill="#A80036" points="432.1617,47.7114,440.5823,52.8196,437.1214,48.345,441.596,44.8841,432.1617,47.7114" style="stroke:#A80036;stroke-width:1.0;"/><text fill="#000000" font-family="sans-serif" font-size="13" lengthAdjust="spacing" textLength="8" x="450.25" y="45.7217">9</text><!--MD5=[0ed16207b6d042243bbca43215b99279]
link CommandHandlersServer to BusinessLogic--><path d="M672.5414,29.6548 C685.6468,29.6548 698.8187,29.6548 711.1734,29.6548 " fill="none" id="CommandHandlersServer-to-BusinessLogic" style="stroke:#A80036;stroke-width:1.0;"/><polygon fill="#A80036" points="716.4157,29.6548,707.4157,25.6548,711.4157,29.6548,707.4157,33.6548,716.4157,29.6548" style="stroke:#A80036;stroke-width:1.0;"/><text fill="#000000" font-family="sans-serif" font-size="13" lengthAdjust="spacing" textLength="8" x="690.5" y="22.7217">5</text><!--MD5=[7de28f859baad7a23f8033baf1725009]
reverse link CommandHandlersServer to BusinessLogic--><path d="M647.7356,48.4575 C664.7023,50.8435 682.707,51.8001 699.5,49.6548 C704.9801,48.9547 710.6276,47.9851 716.2563,46.8473 " fill="none" id="CommandHandlersServer-backto-BusinessLogic" style="stroke:#A80036;stroke-width:1.0;"/><polygon fill="#A80036" points="642.5059,47.673,650.8128,52.9641,647.4506,48.4149,651.9998,45.0526,642.5059,47.673" style="stroke:#A80036;stroke-width:1.0;"/><text fill="#000000" font-family="sans-serif" font-size="13" lengthAdjust="spacing" textLength="8" x="690.5" y="45.7217">8</text><!--MD5=[ad2a1979f6ae581c9c41fec5128e9e76]
link BusinessLogic to DataAccess--><path d="M763.9799,47.7184 C755.8267,61.6464 747.4047,81.5291 751.5,99.6548 C753.4161,108.1355 756.8726,116.8521 760.616,124.6859 " fill="none" id="BusinessLogic-to-DataAccess" style="stroke:#A80036;stroke-width:1.0;"/><polygon fill="#A80036" points="762.9727,129.4395,762.5586,119.5994,760.7517,124.9599,755.3912,123.153,762.9727,129.4395" style="stroke:#A80036;stroke-width:1.0;"/><text fill="#000000" font-family="sans-serif" font-size="13" lengthAdjust="spacing" textLength="8" x="752.5" y="95.7217">6</text><!--MD5=[a8b91615fc2b1f832a87b9f94cf43892]
reverse link BusinessLogic to DataAccess--><path d="M776.5,52.7927 C776.5,74.7594 776.5,107.5793 776.5,129.414 " fill="none" id="BusinessLogic-backto-DataAccess" style="stroke:#A80036;stroke-width:1.0;"/><polygon fill="#A80036" points="776.5,47.7301,772.5,56.7301,776.5,52.7301,780.5,56.7301,776.5,47.7301" style="stroke:#A80036;stroke-width:1.0;"/><text fill="#000000" font-family="sans-serif" font-size="13" lengthAdjust="spacing" textLength="8" x="777.5" y="95.7217">7</text><!--MD5=[3052f2aee32d35a9393b131561e6ef04]
@startuml
actor  Usuario #LightBlue
agent ClientPresentation #LightBlue
agent CommandHandlersClient #LightBlue
agent CommandHandlersServer #LightGreen
cloud "Red (TCP y Protocolo)" as Red #Yellow
database DataAccess #LightGreen
agent BusinessLogic #LightGreen


Usuario -up-> ClientPresentation: 1
ClientPresentation -down-> Usuario : 12

ClientPresentation -up-> CommandHandlersClient: 2
CommandHandlersClient -down-> ClientPresentation : 11

CommandHandlersClient -right-> Red: 3
Red -left-> CommandHandlersClient : 10
Red -right-> CommandHandlersServer: 4
CommandHandlersServer -left-> Red : 9

CommandHandlersServer -right-> BusinessLogic: 5
BusinessLogic -left-> CommandHandlersServer : 8

BusinessLogic -down-> DataAccess: 6
DataAccess -up-> BusinessLogic : 7

/'one -right-> two: message 1- ->2
two -right-> three: message 2- ->3
two - -> four: message 2- ->4
three -[hidden]- four'/
@enduml

@startuml
actor  Usuario #LightBlue
agent ClientPresentation #LightBlue
agent CommandHandlersClient #LightBlue
agent CommandHandlersServer #LightGreen
cloud "Red (TCP y Protocolo)" as Red #Yellow
database DataAccess #LightGreen
agent BusinessLogic #LightGreen


Usuario -up-> ClientPresentation: 1
ClientPresentation -down-> Usuario : 12

ClientPresentation -up-> CommandHandlersClient: 2
CommandHandlersClient -down-> ClientPresentation : 11

CommandHandlersClient -right-> Red: 3
Red -left-> CommandHandlersClient : 10
Red -right-> CommandHandlersServer: 4
CommandHandlersServer -left-> Red : 9

CommandHandlersServer -right-> BusinessLogic: 5
BusinessLogic -left-> CommandHandlersServer : 8

BusinessLogic -down-> DataAccess: 6
DataAccess -up-> BusinessLogic : 7

@enduml

PlantUML version 1.2021.7(Sun May 23 12:40:07 UTC 2021)
(GPL source distribution)
Java Runtime: OpenJDK Runtime Environment
JVM: OpenJDK 64-Bit Server VM
Default Encoding: UTF-8
Language: en
Country: US
--></g></svg>