<?xml version="1.0" encoding="UTF-8" standalone="no"?><svg xmlns="http://www.w3.org/2000/svg" xmlns:xlink="http://www.w3.org/1999/xlink" contentScriptType="application/ecmascript" contentStyleType="text/css" height="377px" preserveAspectRatio="none" style="width:537px;height:377px;background:#FFFFFF;" version="1.1" viewBox="0 0 537 377" width="537px" zoomAndPan="magnify"><defs><filter height="300%" id="f1h5zxh6hxfvri" width="300%" x="-1" y="-1"><feGaussianBlur result="blurOut" stdDeviation="2.0"/><feColorMatrix in="blurOut" result="blurOut2" type="matrix" values="0 0 0 0 0 0 0 0 0 0 0 0 0 0 0 0 0 0 .4 0"/><feOffset dx="4.0" dy="4.0" in="blurOut2" result="blurOut3"/><feBlend in="SourceGraphic" in2="blurOut3" mode="normal"/></filter></defs><g><rect fill="#FFFFFF" filter="url(#f1h5zxh6hxfvri)" height="183.1094" style="stroke:#A80036;stroke-width:1.0;" width="10" x="44.5" y="99.6094"/><rect fill="#FFFFFF" filter="url(#f1h5zxh6hxfvri)" height="160.7578" style="stroke:#A80036;stroke-width:1.0;" width="10" x="173.5" y="121.9609"/><rect fill="#FFFFFF" filter="url(#f1h5zxh6hxfvri)" height="91.0547" style="stroke:#A80036;stroke-width:1.0;" width="10" x="413.5" y="152.3125"/><rect fill="#FFFFFF" filter="url(#f1h5zxh6hxfvri)" height="183.1094" style="stroke:#A80036;stroke-width:1.0;" width="10" x="491" y="99.6094"/><line style="stroke:#A80036;stroke-width:1.0;stroke-dasharray:5.0,5.0;" x1="49" x2="49" y1="89.6094" y2="291.7188"/><line style="stroke:#A80036;stroke-width:1.0;stroke-dasharray:5.0,5.0;" x1="178.5" x2="178.5" y1="89.6094" y2="291.7188"/><line style="stroke:#A80036;stroke-width:1.0;stroke-dasharray:5.0,5.0;" x1="418.5" x2="418.5" y1="89.6094" y2="291.7188"/><line style="stroke:#A80036;stroke-width:1.0;stroke-dasharray:5.0,5.0;" x1="495.5" x2="495.5" y1="89.6094" y2="291.7188"/><text fill="#000000" font-family="sans-serif" font-size="14" lengthAdjust="spacing" textLength="83" x="5" y="86.5332">WebAPI User</text><ellipse cx="49.5" cy="15" fill="#FEFECE" filter="url(#f1h5zxh6hxfvri)" rx="8" ry="8" style="stroke:#A80036;stroke-width:2.0;"/><path d="M49.5,23 L49.5,50 M36.5,31 L62.5,31 M49.5,50 L36.5,65 M49.5,50 L62.5,65 " fill="none" filter="url(#f1h5zxh6hxfvri)" style="stroke:#A80036;stroke-width:2.0;"/><text fill="#000000" font-family="sans-serif" font-size="14" lengthAdjust="spacing" textLength="83" x="5" y="305.252">WebAPI User</text><ellipse cx="49.5" cy="318.3281" fill="#FEFECE" filter="url(#f1h5zxh6hxfvri)" rx="8" ry="8" style="stroke:#A80036;stroke-width:2.0;"/><path d="M49.5,326.3281 L49.5,353.3281 M36.5,334.3281 L62.5,334.3281 M49.5,353.3281 L36.5,368.3281 M49.5,353.3281 L62.5,368.3281 " fill="none" filter="url(#f1h5zxh6hxfvri)" style="stroke:#A80036;stroke-width:2.0;"/><rect fill="#ADD8E6" filter="url(#f1h5zxh6hxfvri)" height="31.6094" style="stroke:#A80036;stroke-width:1.5;" width="100" x="126.5" y="53"/><text fill="#000000" font-family="sans-serif" font-size="14" lengthAdjust="spacing" textLength="86" x="133.5" y="74.5332">LogController</text><rect fill="#ADD8E6" filter="url(#f1h5zxh6hxfvri)" height="31.6094" style="stroke:#A80036;stroke-width:1.5;" width="100" x="126.5" y="290.7188"/><text fill="#000000" font-family="sans-serif" font-size="14" lengthAdjust="spacing" textLength="86" x="133.5" y="312.252">LogController</text><rect fill="#ADD8E6" filter="url(#f1h5zxh6hxfvri)" height="31.6094" style="stroke:#A80036;stroke-width:1.5;" width="50" x="391.5" y="53"/><text fill="#000000" font-family="sans-serif" font-size="14" lengthAdjust="spacing" textLength="36" x="398.5" y="74.5332">:Filter</text><rect fill="#ADD8E6" filter="url(#f1h5zxh6hxfvri)" height="31.6094" style="stroke:#A80036;stroke-width:1.5;" width="50" x="391.5" y="290.7188"/><text fill="#000000" font-family="sans-serif" font-size="14" lengthAdjust="spacing" textLength="36" x="398.5" y="312.252">:Filter</text><text fill="#000000" font-family="sans-serif" font-size="14" lengthAdjust="spacing" textLength="75" x="455.5" y="86.5332">DataAccess</text><path d="M478,36 C478,26 496,26 496,26 C496,26 514,26 514,36 L514,62 C514,72 496,72 496,72 C496,72 478,72 478,62 L478,36 " fill="#ADD8E6" filter="url(#f1h5zxh6hxfvri)" style="stroke:#000000;stroke-width:1.5;"/><path d="M478,36 C478,46 496,46 496,46 C496,46 514,46 514,36 " fill="none" style="stroke:#000000;stroke-width:1.5;"/><text fill="#000000" font-family="sans-serif" font-size="14" lengthAdjust="spacing" textLength="75" x="455.5" y="305.252">DataAccess</text><path d="M478,318.3281 C478,308.3281 496,308.3281 496,308.3281 C496,308.3281 514,308.3281 514,318.3281 L514,344.3281 C514,354.3281 496,354.3281 496,354.3281 C496,354.3281 478,354.3281 478,344.3281 L478,318.3281 " fill="#ADD8E6" filter="url(#f1h5zxh6hxfvri)" style="stroke:#000000;stroke-width:1.5;"/><path d="M478,318.3281 C478,328.3281 496,328.3281 496,328.3281 C496,328.3281 514,328.3281 514,318.3281 " fill="none" style="stroke:#000000;stroke-width:1.5;"/><rect fill="#FFFFFF" filter="url(#f1h5zxh6hxfvri)" height="183.1094" style="stroke:#A80036;stroke-width:1.0;" width="10" x="44.5" y="99.6094"/><rect fill="#FFFFFF" filter="url(#f1h5zxh6hxfvri)" height="160.7578" style="stroke:#A80036;stroke-width:1.0;" width="10" x="173.5" y="121.9609"/><rect fill="#FFFFFF" filter="url(#f1h5zxh6hxfvri)" height="91.0547" style="stroke:#A80036;stroke-width:1.0;" width="10" x="413.5" y="152.3125"/><rect fill="#FFFFFF" filter="url(#f1h5zxh6hxfvri)" height="183.1094" style="stroke:#A80036;stroke-width:1.0;" width="10" x="491" y="99.6094"/><line style="stroke:#A80036;stroke-width:1.0;" x1="171.5" x2="161.5" y1="121.9609" y2="117.9609"/><line style="stroke:#A80036;stroke-width:1.0;" x1="171.5" x2="161.5" y1="121.9609" y2="125.9609"/><line style="stroke:#A80036;stroke-width:1.0;" x1="54.5" x2="172.5" y1="121.9609" y2="121.9609"/><text fill="#000000" font-family="sans-serif" font-size="13" font-weight="bold" lengthAdjust="spacing" textLength="7" x="61.5" y="117.1045">1</text><text fill="#000000" font-family="sans-serif" font-size="13" lengthAdjust="spacing" textLength="58" x="72.5" y="117.1045">GET /logs</text><polygon fill="#A80036" points="401.5,148.3125,411.5,152.3125,401.5,156.3125,405.5,152.3125" style="stroke:#A80036;stroke-width:1.0;"/><line style="stroke:#A80036;stroke-width:1.0;" x1="183.5" x2="407.5" y1="152.3125" y2="152.3125"/><text fill="#000000" font-family="sans-serif" font-size="13" font-weight="bold" lengthAdjust="spacing" textLength="7" x="190.5" y="147.4561">2</text><text fill="#000000" font-family="sans-serif" font-size="13" lengthAdjust="spacing" textLength="200" x="201.5" y="147.4561">&lt;&lt;create&gt;&gt;                                .</text><polygon fill="#A80036" points="194.5,178.6641,184.5,182.6641,194.5,186.6641,190.5,182.6641" style="stroke:#A80036;stroke-width:1.0;"/><line style="stroke:#A80036;stroke-width:1.0;stroke-dasharray:2.0,2.0;" x1="188.5" x2="412.5" y1="182.6641" y2="182.6641"/><text fill="#000000" font-family="sans-serif" font-size="13" font-weight="bold" lengthAdjust="spacing" textLength="7" x="200.5" y="177.8076">3</text><text fill="#000000" font-family="sans-serif" font-size="13" lengthAdjust="spacing" textLength="24" x="211.5" y="177.8076">filter</text><polygon fill="#A80036" points="479,209.0156,489,213.0156,479,217.0156,483,213.0156" style="stroke:#A80036;stroke-width:1.0;"/><line style="stroke:#A80036;stroke-width:1.0;" x1="183.5" x2="485" y1="213.0156" y2="213.0156"/><text fill="#000000" font-family="sans-serif" font-size="13" font-weight="bold" lengthAdjust="spacing" textLength="7" x="190.5" y="208.1592">4</text><text fill="#000000" font-family="sans-serif" font-size="13" lengthAdjust="spacing" textLength="188" x="201.5" y="208.1592">GetLogs(filter): List&lt;LogRecord&gt;</text><polygon fill="#A80036" points="194.5,239.3672,184.5,243.3672,194.5,247.3672,190.5,243.3672" style="stroke:#A80036;stroke-width:1.0;"/><line style="stroke:#A80036;stroke-width:1.0;stroke-dasharray:2.0,2.0;" x1="188.5" x2="490" y1="243.3672" y2="243.3672"/><text fill="#000000" font-family="sans-serif" font-size="13" font-weight="bold" lengthAdjust="spacing" textLength="7" x="200.5" y="238.5107">5</text><text fill="#000000" font-family="sans-serif" font-size="13" lengthAdjust="spacing" textLength="166" x="211.5" y="238.5107">filteredList: List&lt;LogRecord&gt;</text><line style="stroke:#A80036;stroke-width:2.0;" x1="409.5" x2="427.5" y1="234.3672" y2="252.3672"/><line style="stroke:#A80036;stroke-width:2.0;" x1="409.5" x2="427.5" y1="252.3672" y2="234.3672"/><line style="stroke:#A80036;stroke-width:1.0;" x1="54.5" x2="64.5" y1="273.7188" y2="269.7188"/><line style="stroke:#A80036;stroke-width:1.0;" x1="54.5" x2="64.5" y1="273.7188" y2="277.7188"/><line style="stroke:#A80036;stroke-width:1.0;" x1="54.5" x2="172.5" y1="273.7188" y2="273.7188"/><text fill="#000000" font-family="sans-serif" font-size="13" font-weight="bold" lengthAdjust="spacing" textLength="7" x="71.5" y="268.8623">6</text><text fill="#000000" font-family="sans-serif" font-size="13" lengthAdjust="spacing" textLength="84" x="82.5" y="268.8623">Ok(filteredList)</text><!--MD5=[f4eac1dae29bc31fcd3dec881f85fdf4]
@startuml
Actor "WebAPI User" as User
Participant LogController #LightBlue
Participant ":Filter" as Filter #LightBlue
Database DataAccess #LightBlue

autonumber
activate User 
activate DataAccess

User ->> LogController :GET /logs
activate LogController
LogController -> Filter :      <<create>>                                .
activate Filter
Filter - -> LogController : filter

LogController -> DataAccess: GetLogs(filter): List<LogRecord>
DataAccess - -> LogController: filteredList: List<LogRecord>
destroy  Filter
LogController ->> User: Ok(filteredList)
@enduml

PlantUML version 1.2021.14(Fri Nov 12 13:46:50 UYT 2021)
(GPL source distribution)
Java Runtime: Java(TM) SE Runtime Environment
JVM: Java HotSpot(TM) 64-Bit Server VM
Default Encoding: Cp1252
Language: en
Country: GB
--></g></svg>